<svg xmlns="http://www.w3.org/2000/svg" viewBox="0 0 430 232" width="430" height="232" role="img" aria-label="Cofre Obsidian">
  <defs>
    <linearGradient id="g" x1="0" y1="0" x2="1" y2="0">
      <stop offset="0" stop-color="#22d3ee"/><stop offset=".55" stop-color="#3b82f6"/><stop offset="1" stop-color="#6366f1"/>
    </linearGradient>
    <linearGradient id="bg" x1="0" y1="0" x2="1" y2="1"><stop offset="0" stop-color="#050b1a"/><stop offset="1" stop-color="#0a1a3a"/></linearGradient>
  </defs>
  <rect x="1" y="1" width="428" height="230" rx="12" fill="url(#bg)" stroke="url(#g)" stroke-width="1.5" stroke-opacity=".85"/>
  <path d="M1 13 Q1 1 13 1 L417 1 Q429 1 429 13 L429 32 L1 32 Z" fill="#0b1630"/>
  <circle cx="20" cy="17" r="4.5" fill="#22d3ee"/><circle cx="36" cy="17" r="4.5" fill="#3b82f6"/><circle cx="52" cy="17" r="4.5" fill="#6366f1"/>
  <text x="414" y="21" text-anchor="end" font-family="'JetBrains Mono', 'Fira Code', 'Cascadia Code', Consolas, 'DejaVu Sans Mono', monospace" font-size="12" fill="#6f86ad">~/projetos/obsidian_v1</text>
  <g font-family="'JetBrains Mono', 'Fira Code', 'Cascadia Code', Consolas, 'DejaVu Sans Mono', monospace">
    <text x="24" y="58" font-size="12" fill="#6f86ad">$ cat README.md</text>
    <text x="24" y="90" font-size="22" font-weight="700" fill="url(#g)">Cofre Obsidian</text>
    <text x="24" y="114" font-size="13.5" fill="#c9d6ea">Meu segundo cérebro: notas de Python, IA,</text><text x="24" y="134" font-size="13.5" fill="#c9d6ea">GANs, segurança web e bancos de dados.</text>
    <rect x="24" y="150" width="79" height="24" rx="5" fill="#3b82f6" fill-opacity=".13" stroke="#38bdf8" stroke-opacity=".5"/><text x="63" y="166" text-anchor="middle" font-size="12" fill="#e0f7ff">Obsidian</text><rect x="111" y="150" width="79" height="24" rx="5" fill="#3b82f6" fill-opacity=".13" stroke="#38bdf8" stroke-opacity=".5"/><text x="150" y="166" text-anchor="middle" font-size="12" fill="#e0f7ff">Markdown</text><rect x="198" y="150" width="124" height="24" rx="5" fill="#3b82f6" fill-opacity=".13" stroke="#38bdf8" stroke-opacity=".5"/><text x="260" y="166" text-anchor="middle" font-size="12" fill="#e0f7ff">Knowledge Base</text>
    <circle cx="334" cy="218" r="4.5" fill="#ffffff"/>
    <text x="344" y="222" font-size="12" fill="#6f86ad">Markdown</text>
  </g>
</svg>
