<svg xmlns="http://www.w3.org/2000/svg" viewBox="0 0 1200 420" width="1200" height="420" role="img" aria-label="Rede de tecnologias conectadas">
  <defs>
    <linearGradient id="g" x1="0" y1="0" x2="1" y2="0">
      <stop offset="0" stop-color="#22d3ee"/><stop offset=".55" stop-color="#3b82f6"/><stop offset="1" stop-color="#6366f1"/>
    </linearGradient>
    <linearGradient id="bg" x1="0" y1="0" x2="1" y2="1"><stop offset="0" stop-color="#030816"/><stop offset="1" stop-color="#0a1a3a"/></linearGradient>
    <radialGradient id="core"><stop offset="0" stop-color="#3b82f6" stop-opacity=".55"/><stop offset="1" stop-color="#3b82f6" stop-opacity="0"/></radialGradient>
    <linearGradient id="sweep" x1="0" x2="1"><stop offset="0" stop-color="#22d3ee" stop-opacity="0"/><stop offset=".85" stop-color="#22d3ee" stop-opacity=".22"/><stop offset="1" stop-color="#e0f7ff" stop-opacity=".5"/></linearGradient>
    <clipPath id="fr"><rect width="1200" height="420" rx="18"/></clipPath>
  </defs>
  <g clip-path="url(#fr)">
    <rect width="1200" height="420" fill="url(#bg)"/>
    <g fill="#3b82f6" opacity=".25"><circle cx="30" cy="30" r="1.3"/><circle cx="30" cy="70" r="1.3"/><circle cx="30" cy="110" r="1.3"/><circle cx="30" cy="150" r="1.3"/><circle cx="30" cy="190" r="1.3"/><circle cx="30" cy="230" r="1.3"/><circle cx="30" cy="270" r="1.3"/><circle cx="30" cy="310" r="1.3"/><circle cx="30" cy="350" r="1.3"/><circle cx="30" cy="390" r="1.3"/><circle cx="70" cy="30" r="1.3"/><circle cx="70" cy="70" r="1.3"/><circle cx="70" cy="110" r="1.3"/><circle cx="70" cy="150" r="1.3"/><circle cx="70" cy="190" r="1.3"/><circle cx="70" cy="230" r="1.3"/><circle cx="70" cy="270" r="1.3"/><circle cx="70" cy="310" r="1.3"/><circle cx="70" cy="350" r="1.3"/><circle cx="70" cy="390" r="1.3"/><circle cx="110" cy="30" r="1.3"/><circle cx="110" cy="70" r="1.3"/><circle cx="110" cy="110" r="1.3"/><circle cx="110" cy="150" r="1.3"/><circle cx="110" cy="190" r="1.3"/><circle cx="110" cy="230" r="1.3"/><circle cx="110" cy="270" r="1.3"/><circle cx="110" cy="310" r="1.3"/><circle cx="110" cy="350" r="1.3"/><circle cx="110" cy="390" r="1.3"/><circle cx="150" cy="30" r="1.3"/><circle cx="150" cy="70" r="1.3"/><circle cx="150" cy="110" r="1.3"/><circle cx="150" cy="150" r="1.3"/><circle cx="150" cy="190" r="1.3"/><circle cx="150" cy="230" r="1.3"/><circle cx="150" cy="270" r="1.3"/><circle cx="150" cy="310" r="1.3"/><circle cx="150" cy="350" r="1.3"/><circle cx="150" cy="390" r="1.3"/><circle cx="190" cy="30" r="1.3"/><circle cx="190" cy="70" r="1.3"/><circle cx="190" cy="110" r="1.3"/><circle cx="190" cy="150" r="1.3"/><circle cx="190" cy="190" r="1.3"/><circle cx="190" cy="230" r="1.3"/><circle cx="190" cy="270" r="1.3"/><circle cx="190" cy="310" r="1.3"/><circle cx="190" cy="350" r="1.3"/><circle cx="190" cy="390" r="1.3"/><circle cx="230" cy="30" r="1.3"/><circle cx="230" cy="70" r="1.3"/><circle cx="230" cy="110" r="1.3"/><circle cx="230" cy="150" r="1.3"/><circle cx="230" cy="190" r="1.3"/><circle cx="230" cy="230" r="1.3"/><circle cx="230" cy="270" r="1.3"/><circle cx="230" cy="310" r="1.3"/><circle cx="230" cy="350" r="1.3"/><circle cx="230" cy="390" r="1.3"/><circle cx="270" cy="30" r="1.3"/><circle cx="270" cy="70" r="1.3"/><circle cx="270" cy="110" r="1.3"/><circle cx="270" cy="150" r="1.3"/><circle cx="270" cy="190" r="1.3"/><circle cx="270" cy="230" r="1.3"/><circle cx="270" cy="270" r="1.3"/><circle cx="270" cy="310" r="1.3"/><circle cx="270" cy="350" r="1.3"/><circle cx="270" cy="390" r="1.3"/><circle cx="310" cy="30" r="1.3"/><circle cx="310" cy="70" r="1.3"/><circle cx="310" cy="110" r="1.3"/><circle cx="310" cy="150" r="1.3"/><circle cx="310" cy="190" r="1.3"/><circle cx="310" cy="230" r="1.3"/><circle cx="310" cy="270" r="1.3"/><circle cx="310" cy="310" r="1.3"/><circle cx="310" cy="350" r="1.3"/><circle cx="310" cy="390" r="1.3"/><circle cx="350" cy="30" r="1.3"/><circle cx="350" cy="70" r="1.3"/><circle cx="350" cy="110" r="1.3"/><circle cx="350" cy="150" r="1.3"/><circle cx="350" cy="190" r="1.3"/><circle cx="350" cy="230" r="1.3"/><circle cx="350" cy="270" r="1.3"/><circle cx="350" cy="310" r="1.3"/><circle cx="350" cy="350" r="1.3"/><circle cx="350" cy="390" r="1.3"/><circle cx="390" cy="30" r="1.3"/><circle cx="390" cy="70" r="1.3"/><circle cx="390" cy="110" r="1.3"/><circle cx="390" cy="150" r="1.3"/><circle cx="390" cy="190" r="1.3"/><circle cx="390" cy="230" r="1.3"/><circle cx="390" cy="270" r="1.3"/><circle cx="390" cy="310" r="1.3"/><circle cx="390" cy="350" r="1.3"/><circle cx="390" cy="390" r="1.3"/><circle cx="430" cy="30" r="1.3"/><circle cx="430" cy="70" r="1.3"/><circle cx="430" cy="110" r="1.3"/><circle cx="430" cy="150" r="1.3"/><circle cx="430" cy="190" r="1.3"/><circle cx="430" cy="230" r="1.3"/><circle cx="430" cy="270" r="1.3"/><circle cx="430" cy="310" r="1.3"/><circle cx="430" cy="350" r="1.3"/><circle cx="430" cy="390" r="1.3"/><circle cx="470" cy="30" r="1.3"/><circle cx="470" cy="70" r="1.3"/><circle cx="470" cy="110" r="1.3"/><circle cx="470" cy="150" r="1.3"/><circle cx="470" cy="190" r="1.3"/><circle cx="470" cy="230" r="1.3"/><circle cx="470" cy="270" r="1.3"/><circle cx="470" cy="310" r="1.3"/><circle cx="470" cy="350" r="1.3"/><circle cx="470" cy="390" r="1.3"/><circle cx="510" cy="30" r="1.3"/><circle cx="510" cy="70" r="1.3"/><circle cx="510" cy="110" r="1.3"/><circle cx="510" cy="150" r="1.3"/><circle cx="510" cy="190" r="1.3"/><circle cx="510" cy="230" r="1.3"/><circle cx="510" cy="270" r="1.3"/><circle cx="510" cy="310" r="1.3"/><circle cx="510" cy="350" r="1.3"/><circle cx="510" cy="390" r="1.3"/><circle cx="550" cy="30" r="1.3"/><circle cx="550" cy="70" r="1.3"/><circle cx="550" cy="110" r="1.3"/><circle cx="550" cy="150" r="1.3"/><circle cx="550" cy="190" r="1.3"/><circle cx="550" cy="230" r="1.3"/><circle cx="550" cy="270" r="1.3"/><circle cx="550" cy="310" r="1.3"/><circle cx="550" cy="350" r="1.3"/><circle cx="550" cy="390" r="1.3"/><circle cx="590" cy="30" r="1.3"/><circle cx="590" cy="70" r="1.3"/><circle cx="590" cy="110" r="1.3"/><circle cx="590" cy="150" r="1.3"/><circle cx="590" cy="190" r="1.3"/><circle cx="590" cy="230" r="1.3"/><circle cx="590" cy="270" r="1.3"/><circle cx="590" cy="310" r="1.3"/><circle cx="590" cy="350" r="1.3"/><circle cx="590" cy="390" r="1.3"/><circle cx="630" cy="30" r="1.3"/><circle cx="630" cy="70" r="1.3"/><circle cx="630" cy="110" r="1.3"/><circle cx="630" cy="150" r="1.3"/><circle cx="630" cy="190" r="1.3"/><circle cx="630" cy="230" r="1.3"/><circle cx="630" cy="270" r="1.3"/><circle cx="630" cy="310" r="1.3"/><circle cx="630" cy="350" r="1.3"/><circle cx="630" cy="390" r="1.3"/><circle cx="670" cy="30" r="1.3"/><circle cx="670" cy="70" r="1.3"/><circle cx="670" cy="110" r="1.3"/><circle cx="670" cy="150" r="1.3"/><circle cx="670" cy="190" r="1.3"/><circle cx="670" cy="230" r="1.3"/><circle cx="670" cy="270" r="1.3"/><circle cx="670" cy="310" r="1.3"/><circle cx="670" cy="350" r="1.3"/><circle cx="670" cy="390" r="1.3"/><circle cx="710" cy="30" r="1.3"/><circle cx="710" cy="70" r="1.3"/><circle cx="710" cy="110" r="1.3"/><circle cx="710" cy="150" r="1.3"/><circle cx="710" cy="190" r="1.3"/><circle cx="710" cy="230" r="1.3"/><circle cx="710" cy="270" r="1.3"/><circle cx="710" cy="310" r="1.3"/><circle cx="710" cy="350" r="1.3"/><circle cx="710" cy="390" r="1.3"/><circle cx="750" cy="30" r="1.3"/><circle cx="750" cy="70" r="1.3"/><circle cx="750" cy="110" r="1.3"/><circle cx="750" cy="150" r="1.3"/><circle cx="750" cy="190" r="1.3"/><circle cx="750" cy="230" r="1.3"/><circle cx="750" cy="270" r="1.3"/><circle cx="750" cy="310" r="1.3"/><circle cx="750" cy="350" r="1.3"/><circle cx="750" cy="390" r="1.3"/><circle cx="790" cy="30" r="1.3"/><circle cx="790" cy="70" r="1.3"/><circle cx="790" cy="110" r="1.3"/><circle cx="790" cy="150" r="1.3"/><circle cx="790" cy="190" r="1.3"/><circle cx="790" cy="230" r="1.3"/><circle cx="790" cy="270" r="1.3"/><circle cx="790" cy="310" r="1.3"/><circle cx="790" cy="350" r="1.3"/><circle cx="790" cy="390" r="1.3"/><circle cx="830" cy="30" r="1.3"/><circle cx="830" cy="70" r="1.3"/><circle cx="830" cy="110" r="1.3"/><circle cx="830" cy="150" r="1.3"/><circle cx="830" cy="190" r="1.3"/><circle cx="830" cy="230" r="1.3"/><circle cx="830" cy="270" r="1.3"/><circle cx="830" cy="310" r="1.3"/><circle cx="830" cy="350" r="1.3"/><circle cx="830" cy="390" r="1.3"/><circle cx="870" cy="30" r="1.3"/><circle cx="870" cy="70" r="1.3"/><circle cx="870" cy="110" r="1.3"/><circle cx="870" cy="150" r="1.3"/><circle cx="870" cy="190" r="1.3"/><circle cx="870" cy="230" r="1.3"/><circle cx="870" cy="270" r="1.3"/><circle cx="870" cy="310" r="1.3"/><circle cx="870" cy="350" r="1.3"/><circle cx="870" cy="390" r="1.3"/><circle cx="910" cy="30" r="1.3"/><circle cx="910" cy="70" r="1.3"/><circle cx="910" cy="110" r="1.3"/><circle cx="910" cy="150" r="1.3"/><circle cx="910" cy="190" r="1.3"/><circle cx="910" cy="230" r="1.3"/><circle cx="910" cy="270" r="1.3"/><circle cx="910" cy="310" r="1.3"/><circle cx="910" cy="350" r="1.3"/><circle cx="910" cy="390" r="1.3"/><circle cx="950" cy="30" r="1.3"/><circle cx="950" cy="70" r="1.3"/><circle cx="950" cy="110" r="1.3"/><circle cx="950" cy="150" r="1.3"/><circle cx="950" cy="190" r="1.3"/><circle cx="950" cy="230" r="1.3"/><circle cx="950" cy="270" r="1.3"/><circle cx="950" cy="310" r="1.3"/><circle cx="950" cy="350" r="1.3"/><circle cx="950" cy="390" r="1.3"/><circle cx="990" cy="30" r="1.3"/><circle cx="990" cy="70" r="1.3"/><circle cx="990" cy="110" r="1.3"/><circle cx="990" cy="150" r="1.3"/><circle cx="990" cy="190" r="1.3"/><circle cx="990" cy="230" r="1.3"/><circle cx="990" cy="270" r="1.3"/><circle cx="990" cy="310" r="1.3"/><circle cx="990" cy="350" r="1.3"/><circle cx="990" cy="390" r="1.3"/><circle cx="1030" cy="30" r="1.3"/><circle cx="1030" cy="70" r="1.3"/><circle cx="1030" cy="110" r="1.3"/><circle cx="1030" cy="150" r="1.3"/><circle cx="1030" cy="190" r="1.3"/><circle cx="1030" cy="230" r="1.3"/><circle cx="1030" cy="270" r="1.3"/><circle cx="1030" cy="310" r="1.3"/><circle cx="1030" cy="350" r="1.3"/><circle cx="1030" cy="390" r="1.3"/><circle cx="1070" cy="30" r="1.3"/><circle cx="1070" cy="70" r="1.3"/><circle cx="1070" cy="110" r="1.3"/><circle cx="1070" cy="150" r="1.3"/><circle cx="1070" cy="190" r="1.3"/><circle cx="1070" cy="230" r="1.3"/><circle cx="1070" cy="270" r="1.3"/><circle cx="1070" cy="310" r="1.3"/><circle cx="1070" cy="350" r="1.3"/><circle cx="1070" cy="390" r="1.3"/><circle cx="1110" cy="30" r="1.3"/><circle cx="1110" cy="70" r="1.3"/><circle cx="1110" cy="110" r="1.3"/><circle cx="1110" cy="150" r="1.3"/><circle cx="1110" cy="190" r="1.3"/><circle cx="1110" cy="230" r="1.3"/><circle cx="1110" cy="270" r="1.3"/><circle cx="1110" cy="310" r="1.3"/><circle cx="1110" cy="350" r="1.3"/><circle cx="1110" cy="390" r="1.3"/><circle cx="1150" cy="30" r="1.3"/><circle cx="1150" cy="70" r="1.3"/><circle cx="1150" cy="110" r="1.3"/><circle cx="1150" cy="150" r="1.3"/><circle cx="1150" cy="190" r="1.3"/><circle cx="1150" cy="230" r="1.3"/><circle cx="1150" cy="270" r="1.3"/><circle cx="1150" cy="310" r="1.3"/><circle cx="1150" cy="350" r="1.3"/><circle cx="1150" cy="390" r="1.3"/><circle cx="1190" cy="30" r="1.3"/><circle cx="1190" cy="70" r="1.3"/><circle cx="1190" cy="110" r="1.3"/><circle cx="1190" cy="150" r="1.3"/><circle cx="1190" cy="190" r="1.3"/><circle cx="1190" cy="230" r="1.3"/><circle cx="1190" cy="270" r="1.3"/><circle cx="1190" cy="310" r="1.3"/><circle cx="1190" cy="350" r="1.3"/><circle cx="1190" cy="390" r="1.3"/></g>
    <circle cx="600" cy="210" r="230" fill="url(#core)"/>
    <rect x="-160" y="0" width="160" height="420" fill="url(#sweep)"><animate attributeName="x" values="-160;1200" dur="7s" repeatCount="indefinite"/></rect>
    <g stroke="#3b82f6" stroke-opacity=".38" stroke-width="1.2"><line x1="600" y1="210" x2="1066.4" y2="201.3"/><line x1="600" y1="210" x2="844.6" y2="258.2"/><line x1="600" y1="210" x2="887.4" y2="340.7"/><line x1="600" y1="210" x2="691.1" y2="304.9"/><line x1="600" y1="210" x2="575.7" y2="382.3"/><line x1="600" y1="210" x2="503.7" y2="301.4"/><line x1="600" y1="210" x2="279" y2="330.4"/><line x1="600" y1="210" x2="320.8" y2="248.4"/><line x1="600" y1="210" x2="126.3" y2="229.5"/><line x1="600" y1="210" x2="335" y2="156.7"/><line x1="600" y1="210" x2="241.5" y2="93.7"/><line x1="600" y1="210" x2="500.4" y2="118.8"/><line x1="600" y1="210" x2="630.3" y2="40.3"/><line x1="600" y1="210" x2="697.6" y2="112.2"/><line x1="600" y1="210" x2="952.3" y2="105.3"/><line x1="600" y1="210" x2="860.2" y2="169.5"/><line x1="1066.4" y1="201.3" x2="844.6" y2="258.2"/><line x1="844.6" y1="258.2" x2="887.4" y2="340.7"/><line x1="887.4" y1="340.7" x2="691.1" y2="304.9"/><line x1="691.1" y1="304.9" x2="575.7" y2="382.3"/><line x1="575.7" y1="382.3" x2="503.7" y2="301.4"/><line x1="503.7" y1="301.4" x2="279" y2="330.4"/><line x1="279" y1="330.4" x2="320.8" y2="248.4"/><line x1="320.8" y1="248.4" x2="126.3" y2="229.5"/><line x1="126.3" y1="229.5" x2="335" y2="156.7"/><line x1="335" y1="156.7" x2="241.5" y2="93.7"/><line x1="241.5" y1="93.7" x2="500.4" y2="118.8"/><line x1="500.4" y1="118.8" x2="630.3" y2="40.3"/><line x1="630.3" y1="40.3" x2="697.6" y2="112.2"/><line x1="697.6" y1="112.2" x2="952.3" y2="105.3"/><line x1="952.3" y1="105.3" x2="860.2" y2="169.5"/><line x1="860.2" y1="169.5" x2="1066.4" y2="201.3"/></g>
    <g stroke="#e0f7ff" stroke-width="3" stroke-linecap="round"><line x1="600" y1="210" x2="1066.4" y2="201.3" stroke-dasharray="7 466" stroke-dashoffset="0"><animate attributeName="stroke-dashoffset" from="473" to="0" dur="2.7s" begin="-0.0s" repeatCount="indefinite"/></line><line x1="600" y1="210" x2="844.6" y2="258.2" stroke-dasharray="7 249" stroke-dashoffset="0"><animate attributeName="stroke-dashoffset" from="256" to="0" dur="2.4s" begin="-2.2s" repeatCount="indefinite"/></line><line x1="600" y1="210" x2="887.4" y2="340.7" stroke-dasharray="7 315" stroke-dashoffset="0"><animate attributeName="stroke-dashoffset" from="322" to="0" dur="2.2s" begin="-0.3s" repeatCount="indefinite"/></line><line x1="600" y1="210" x2="691.1" y2="304.9" stroke-dasharray="7 131" stroke-dashoffset="0"><animate attributeName="stroke-dashoffset" from="138" to="0" dur="3.4s" begin="-3.7s" repeatCount="indefinite"/></line><line x1="600" y1="210" x2="575.7" y2="382.3" stroke-dasharray="7 174" stroke-dashoffset="0"><animate attributeName="stroke-dashoffset" from="181" to="0" dur="3.2s" begin="-1.6s" repeatCount="indefinite"/></line><line x1="600" y1="210" x2="503.7" y2="301.4" stroke-dasharray="7 132" stroke-dashoffset="0"><animate attributeName="stroke-dashoffset" from="139" to="0" dur="3.7s" begin="-0.4s" repeatCount="indefinite"/></line><line x1="600" y1="210" x2="279" y2="330.4" stroke-dasharray="7 342" stroke-dashoffset="0"><animate attributeName="stroke-dashoffset" from="349" to="0" dur="3.6s" begin="-0.7s" repeatCount="indefinite"/></line><line x1="600" y1="210" x2="320.8" y2="248.4" stroke-dasharray="7 281" stroke-dashoffset="0"><animate attributeName="stroke-dashoffset" from="288" to="0" dur="3.7s" begin="-3.8s" repeatCount="indefinite"/></line><line x1="600" y1="210" x2="126.3" y2="229.5" stroke-dasharray="7 474" stroke-dashoffset="0"><animate attributeName="stroke-dashoffset" from="481" to="0" dur="2.3s" begin="-2.2s" repeatCount="indefinite"/></line><line x1="600" y1="210" x2="335" y2="156.7" stroke-dasharray="7 270" stroke-dashoffset="0"><animate attributeName="stroke-dashoffset" from="277" to="0" dur="3.7s" begin="-0.6s" repeatCount="indefinite"/></line><line x1="600" y1="210" x2="241.5" y2="93.7" stroke-dasharray="7 376" stroke-dashoffset="0"><animate attributeName="stroke-dashoffset" from="383" to="0" dur="2.8s" begin="-4.0s" repeatCount="indefinite"/></line><line x1="600" y1="210" x2="500.4" y2="118.8" stroke-dasharray="7 135" stroke-dashoffset="0"><animate attributeName="stroke-dashoffset" from="142" to="0" dur="4.6s" begin="-0.5s" repeatCount="indefinite"/></line><line x1="600" y1="210" x2="630.3" y2="40.3" stroke-dasharray="7 172" stroke-dashoffset="0"><animate attributeName="stroke-dashoffset" from="179" to="0" dur="3.9s" begin="-3.8s" repeatCount="indefinite"/></line><line x1="600" y1="210" x2="697.6" y2="112.2" stroke-dasharray="7 138" stroke-dashoffset="0"><animate attributeName="stroke-dashoffset" from="145" to="0" dur="2.8s" begin="-2.4s" repeatCount="indefinite"/></line><line x1="600" y1="210" x2="952.3" y2="105.3" stroke-dasharray="7 367" stroke-dashoffset="0"><animate attributeName="stroke-dashoffset" from="374" to="0" dur="2.3s" begin="-1.5s" repeatCount="indefinite"/></line><line x1="600" y1="210" x2="860.2" y2="169.5" stroke-dasharray="7 263" stroke-dashoffset="0"><animate attributeName="stroke-dashoffset" from="270" to="0" dur="3.8s" begin="-2.4s" repeatCount="indefinite"/></line><line x1="1066.4" y1="201.3" x2="844.6" y2="258.2" stroke-dasharray="7 229" stroke-dashoffset="0"><animate attributeName="stroke-dashoffset" from="236" to="0" dur="4.1s" begin="-0.3s" repeatCount="indefinite"/></line><line x1="844.6" y1="258.2" x2="887.4" y2="340.7" stroke-dasharray="7 92" stroke-dashoffset="0"><animate attributeName="stroke-dashoffset" from="99" to="0" dur="3.0s" begin="-3.5s" repeatCount="indefinite"/></line><line x1="887.4" y1="340.7" x2="691.1" y2="304.9" stroke-dasharray="7 199" stroke-dashoffset="0"><animate attributeName="stroke-dashoffset" from="206" to="0" dur="3.6s" begin="-1.8s" repeatCount="indefinite"/></line><line x1="691.1" y1="304.9" x2="575.7" y2="382.3" stroke-dasharray="7 138" stroke-dashoffset="0"><animate attributeName="stroke-dashoffset" from="145" to="0" dur="3.2s" begin="-3.9s" repeatCount="indefinite"/></line><line x1="575.7" y1="382.3" x2="503.7" y2="301.4" stroke-dasharray="7 108" stroke-dashoffset="0"><animate attributeName="stroke-dashoffset" from="115" to="0" dur="3.6s" begin="-0.1s" repeatCount="indefinite"/></line><line x1="503.7" y1="301.4" x2="279" y2="330.4" stroke-dasharray="7 226" stroke-dashoffset="0"><animate attributeName="stroke-dashoffset" from="233" to="0" dur="4.1s" begin="-1.3s" repeatCount="indefinite"/></line><line x1="279" y1="330.4" x2="320.8" y2="248.4" stroke-dasharray="7 92" stroke-dashoffset="0"><animate attributeName="stroke-dashoffset" from="99" to="0" dur="3.2s" begin="-0.9s" repeatCount="indefinite"/></line><line x1="320.8" y1="248.4" x2="126.3" y2="229.5" stroke-dasharray="7 195" stroke-dashoffset="0"><animate attributeName="stroke-dashoffset" from="202" to="0" dur="3.3s" begin="-1.3s" repeatCount="indefinite"/></line><line x1="126.3" y1="229.5" x2="335" y2="156.7" stroke-dasharray="7 221" stroke-dashoffset="0"><animate attributeName="stroke-dashoffset" from="228" to="0" dur="2.4s" begin="-2.5s" repeatCount="indefinite"/></line><line x1="335" y1="156.7" x2="241.5" y2="93.7" stroke-dasharray="7 112" stroke-dashoffset="0"><animate attributeName="stroke-dashoffset" from="119" to="0" dur="2.4s" begin="-3.1s" repeatCount="indefinite"/></line><line x1="241.5" y1="93.7" x2="500.4" y2="118.8" stroke-dasharray="7 260" stroke-dashoffset="0"><animate attributeName="stroke-dashoffset" from="267" to="0" dur="2.3s" begin="-3.1s" repeatCount="indefinite"/></line><line x1="500.4" y1="118.8" x2="630.3" y2="40.3" stroke-dasharray="7 151" stroke-dashoffset="0"><animate attributeName="stroke-dashoffset" from="158" to="0" dur="4.1s" begin="-2.0s" repeatCount="indefinite"/></line><line x1="630.3" y1="40.3" x2="697.6" y2="112.2" stroke-dasharray="7 98" stroke-dashoffset="0"><animate attributeName="stroke-dashoffset" from="105" to="0" dur="3.9s" begin="-1.0s" repeatCount="indefinite"/></line><line x1="697.6" y1="112.2" x2="952.3" y2="105.3" stroke-dasharray="7 254" stroke-dashoffset="0"><animate attributeName="stroke-dashoffset" from="261" to="0" dur="4.0s" begin="-1.7s" repeatCount="indefinite"/></line><line x1="952.3" y1="105.3" x2="860.2" y2="169.5" stroke-dasharray="7 112" stroke-dashoffset="0"><animate attributeName="stroke-dashoffset" from="119" to="0" dur="2.8s" begin="-3.9s" repeatCount="indefinite"/></line><line x1="860.2" y1="169.5" x2="1066.4" y2="201.3" stroke-dasharray="7 208" stroke-dashoffset="0"><animate attributeName="stroke-dashoffset" from="215" to="0" dur="3.2s" begin="-1.5s" repeatCount="indefinite"/></line></g>
    <g><circle cx="1066.4" cy="201.3" r="6" fill="none" stroke="#38bdf8"><animate attributeName="r" values="6;22" dur="3.6s" begin="-1.3s" repeatCount="indefinite"/><animate attributeName="opacity" values=".7;0" dur="3.6s" begin="-2.4s" repeatCount="indefinite"/></circle><circle cx="1066.4" cy="201.3" r="6.5" fill="#020611" stroke="#22d3ee" stroke-width="2.2"/><text x="1080.4" y="205.8" text-anchor="start" font-family="'JetBrains Mono', 'Fira Code', 'Cascadia Code', Consolas, 'DejaVu Sans Mono', monospace" font-size="13" fill="#e0f7ff" letter-spacing="1">PYTHON</text></g><g><circle cx="844.6" cy="258.2" r="6" fill="none" stroke="#38bdf8"><animate attributeName="r" values="6;22" dur="2.5s" begin="-2.1s" repeatCount="indefinite"/><animate attributeName="opacity" values=".7;0" dur="2.5s" begin="-0.6s" repeatCount="indefinite"/></circle><circle cx="844.6" cy="258.2" r="6.5" fill="#020611" stroke="#25c9ef" stroke-width="2.2"/><text x="858.6" y="262.7" text-anchor="start" font-family="'JetBrains Mono', 'Fira Code', 'Cascadia Code', Consolas, 'DejaVu Sans Mono', monospace" font-size="13" fill="#e0f7ff" letter-spacing="1">HTML5</text></g><g><circle cx="887.4" cy="340.7" r="6" fill="none" stroke="#38bdf8"><animate attributeName="r" values="6;22" dur="2.3s" begin="-2.2s" repeatCount="indefinite"/><animate attributeName="opacity" values=".7;0" dur="2.3s" begin="-0.4s" repeatCount="indefinite"/></circle><circle cx="887.4" cy="340.7" r="6.5" fill="#020611" stroke="#28bff0" stroke-width="2.2"/><text x="901.4" y="345.2" text-anchor="start" font-family="'JetBrains Mono', 'Fira Code', 'Cascadia Code', Consolas, 'DejaVu Sans Mono', monospace" font-size="13" fill="#e0f7ff" letter-spacing="1">CSS3</text></g><g><circle cx="691.1" cy="304.9" r="6" fill="none" stroke="#38bdf8"><animate attributeName="r" values="6;22" dur="3.7s" begin="-3.7s" repeatCount="indefinite"/><animate attributeName="opacity" values=".7;0" dur="3.7s" begin="-2.3s" repeatCount="indefinite"/></circle><circle cx="691.1" cy="304.9" r="6.5" fill="#020611" stroke="#2bb5f1" stroke-width="2.2"/><text x="705.1" y="309.4" text-anchor="start" font-family="'JetBrains Mono', 'Fira Code', 'Cascadia Code', Consolas, 'DejaVu Sans Mono', monospace" font-size="13" fill="#e0f7ff" letter-spacing="1">PHP</text></g><g><circle cx="575.7" cy="382.3" r="6" fill="none" stroke="#38bdf8"><animate attributeName="r" values="6;22" dur="2.2s" begin="-0.1s" repeatCount="indefinite"/><animate attributeName="opacity" values=".7;0" dur="2.2s" begin="-0.5s" repeatCount="indefinite"/></circle><circle cx="575.7" cy="382.3" r="6.5" fill="#020611" stroke="#2eaaf2" stroke-width="2.2"/><text x="561.7" y="386.8" text-anchor="end" font-family="'JetBrains Mono', 'Fira Code', 'Cascadia Code', Consolas, 'DejaVu Sans Mono', monospace" font-size="13" fill="#e0f7ff" letter-spacing="1">VITE</text></g><g><circle cx="503.7" cy="301.4" r="6" fill="none" stroke="#38bdf8"><animate attributeName="r" values="6;22" dur="2.8s" begin="-1.7s" repeatCount="indefinite"/><animate attributeName="opacity" values=".7;0" dur="2.8s" begin="-2.7s" repeatCount="indefinite"/></circle><circle cx="503.7" cy="301.4" r="6.5" fill="#020611" stroke="#32a0f3" stroke-width="2.2"/><text x="489.7" y="305.9" text-anchor="end" font-family="'JetBrains Mono', 'Fira Code', 'Cascadia Code', Consolas, 'DejaVu Sans Mono', monospace" font-size="13" fill="#e0f7ff" letter-spacing="1">POSTGRES</text></g><g><circle cx="279" cy="330.4" r="6" fill="none" stroke="#38bdf8"><animate attributeName="r" values="6;22" dur="2.8s" begin="-0.4s" repeatCount="indefinite"/><animate attributeName="opacity" values=".7;0" dur="2.8s" begin="-1.6s" repeatCount="indefinite"/></circle><circle cx="279" cy="330.4" r="6.5" fill="#020611" stroke="#3596f4" stroke-width="2.2"/><text x="265" y="334.9" text-anchor="end" font-family="'JetBrains Mono', 'Fira Code', 'Cascadia Code', Consolas, 'DejaVu Sans Mono', monospace" font-size="13" fill="#e0f7ff" letter-spacing="1">MYSQL</text></g><g><circle cx="320.8" cy="248.4" r="6" fill="none" stroke="#38bdf8"><animate attributeName="r" values="6;22" dur="2.4s" begin="-0.2s" repeatCount="indefinite"/><animate attributeName="opacity" values=".7;0" dur="2.4s" begin="-1.3s" repeatCount="indefinite"/></circle><circle cx="320.8" cy="248.4" r="6.5" fill="#020611" stroke="#388cf5" stroke-width="2.2"/><text x="306.8" y="252.9" text-anchor="end" font-family="'JetBrains Mono', 'Fira Code', 'Cascadia Code', Consolas, 'DejaVu Sans Mono', monospace" font-size="13" fill="#e0f7ff" letter-spacing="1">SQLITE</text></g><g><circle cx="126.3" cy="229.5" r="6" fill="none" stroke="#38bdf8"><animate attributeName="r" values="6;22" dur="3.3s" begin="-0.2s" repeatCount="indefinite"/><animate attributeName="opacity" values=".7;0" dur="3.3s" begin="-1.5s" repeatCount="indefinite"/></circle><circle cx="126.3" cy="229.5" r="6.5" fill="#020611" stroke="#3b82f6" stroke-width="2.2"/><text x="112.3" y="234" text-anchor="end" font-family="'JetBrains Mono', 'Fira Code', 'Cascadia Code', Consolas, 'DejaVu Sans Mono', monospace" font-size="13" fill="#e0f7ff" letter-spacing="1">GIT</text></g><g><circle cx="335" cy="156.7" r="6" fill="none" stroke="#38bdf8"><animate attributeName="r" values="6;22" dur="3.3s" begin="-2.5s" repeatCount="indefinite"/><animate attributeName="opacity" values=".7;0" dur="3.3s" begin="-1.3s" repeatCount="indefinite"/></circle><circle cx="335" cy="156.7" r="6.5" fill="#020611" stroke="#407ef5" stroke-width="2.2"/><text x="321" y="161.2" text-anchor="end" font-family="'JetBrains Mono', 'Fira Code', 'Cascadia Code', Consolas, 'DejaVu Sans Mono', monospace" font-size="13" fill="#e0f7ff" letter-spacing="1">GITHUB</text></g><g><circle cx="241.5" cy="93.7" r="6" fill="none" stroke="#38bdf8"><animate attributeName="r" values="6;22" dur="3.6s" begin="-0.6s" repeatCount="indefinite"/><animate attributeName="opacity" values=".7;0" dur="3.6s" begin="-2.6s" repeatCount="indefinite"/></circle><circle cx="241.5" cy="93.7" r="6.5" fill="#020611" stroke="#457bf5" stroke-width="2.2"/><text x="227.5" y="98.2" text-anchor="end" font-family="'JetBrains Mono', 'Fira Code', 'Cascadia Code', Consolas, 'DejaVu Sans Mono', monospace" font-size="13" fill="#e0f7ff" letter-spacing="1">VSCODE</text></g><g><circle cx="500.4" cy="118.8" r="6" fill="none" stroke="#38bdf8"><animate attributeName="r" values="6;22" dur="3.4s" begin="-3.0s" repeatCount="indefinite"/><animate attributeName="opacity" values=".7;0" dur="3.4s" begin="-1.7s" repeatCount="indefinite"/></circle><circle cx="500.4" cy="118.8" r="6.5" fill="#020611" stroke="#4a78f4" stroke-width="2.2"/><text x="486.4" y="123.3" text-anchor="end" font-family="'JetBrains Mono', 'Fira Code', 'Cascadia Code', Consolas, 'DejaVu Sans Mono', monospace" font-size="13" fill="#e0f7ff" letter-spacing="1">CLAUDE</text></g><g><circle cx="630.3" cy="40.3" r="6" fill="none" stroke="#38bdf8"><animate attributeName="r" values="6;22" dur="2.4s" begin="-0.1s" repeatCount="indefinite"/><animate attributeName="opacity" values=".7;0" dur="2.4s" begin="-1.2s" repeatCount="indefinite"/></circle><circle cx="630.3" cy="40.3" r="6.5" fill="#020611" stroke="#4f74f4" stroke-width="2.2"/><text x="644.3" y="44.8" text-anchor="start" font-family="'JetBrains Mono', 'Fira Code', 'Cascadia Code', Consolas, 'DejaVu Sans Mono', monospace" font-size="13" fill="#e0f7ff" letter-spacing="1">CHATGPT</text></g><g><circle cx="697.6" cy="112.2" r="6" fill="none" stroke="#38bdf8"><animate attributeName="r" values="6;22" dur="2.5s" begin="-1.6s" repeatCount="indefinite"/><animate attributeName="opacity" values=".7;0" dur="2.5s" begin="-0.2s" repeatCount="indefinite"/></circle><circle cx="697.6" cy="112.2" r="6.5" fill="#020611" stroke="#5470f3" stroke-width="2.2"/><text x="711.6" y="116.7" text-anchor="start" font-family="'JetBrains Mono', 'Fira Code', 'Cascadia Code', Consolas, 'DejaVu Sans Mono', monospace" font-size="13" fill="#e0f7ff" letter-spacing="1">OPENROUTER</text></g><g><circle cx="952.3" cy="105.3" r="6" fill="none" stroke="#38bdf8"><animate attributeName="r" values="6;22" dur="3.4s" begin="-0.8s" repeatCount="indefinite"/><animate attributeName="opacity" values=".7;0" dur="3.4s" begin="-0.0s" repeatCount="indefinite"/></circle><circle cx="952.3" cy="105.3" r="6.5" fill="#020611" stroke="#596df2" stroke-width="2.2"/><text x="966.3" y="109.8" text-anchor="start" font-family="'JetBrains Mono', 'Fira Code', 'Cascadia Code', Consolas, 'DejaVu Sans Mono', monospace" font-size="13" fill="#e0f7ff" letter-spacing="1">OMNIROUTE</text></g><g><circle cx="860.2" cy="169.5" r="6" fill="none" stroke="#38bdf8"><animate attributeName="r" values="6;22" dur="2.5s" begin="-1.1s" repeatCount="indefinite"/><animate attributeName="opacity" values=".7;0" dur="2.5s" begin="-1.4s" repeatCount="indefinite"/></circle><circle cx="860.2" cy="169.5" r="6.5" fill="#020611" stroke="#5e6af2" stroke-width="2.2"/><text x="874.2" y="174" text-anchor="start" font-family="'JetBrains Mono', 'Fira Code', 'Cascadia Code', Consolas, 'DejaVu Sans Mono', monospace" font-size="13" fill="#e0f7ff" letter-spacing="1">9ROUTER</text></g>
    <polygon points="631.2,228 600,246 568.8,228 568.8,192 600,174 631.2,192" fill="#020611" stroke="url(#g)" stroke-width="3">
      <animate attributeName="stroke-opacity" values="1;.55;1" dur="2.4s" repeatCount="indefinite"/></polygon>
    <polygon points="631.2,228 600,246 568.8,228 568.8,192 600,174 631.2,192" fill="none" stroke="#22d3ee" stroke-opacity=".5" transform="translate(600 210) scale(1.35) translate(-600 -210)"/>
    <text x="600" y="220" text-anchor="middle" font-family="'JetBrains Mono', 'Fira Code', 'Cascadia Code', Consolas, 'DejaVu Sans Mono', monospace" font-size="30" font-weight="700" fill="url(#g)">D</text>
    <g font-family="'JetBrains Mono', 'Fira Code', 'Cascadia Code', Consolas, 'DejaVu Sans Mono', monospace" font-size="12" fill="#6f86ad"><text x="26" y="398">nós: 17</text><text x="1174" y="398" text-anchor="end">tráfego: criptografado</text></g>
    <rect x="1" y="1" width="1198" height="418" rx="18" fill="none" stroke="url(#g)" stroke-opacity=".6" stroke-width="1.5"/>
  </g>
</svg>
